<svg width="66" height="40" viewBox="0 0 66 40" fill="none" xmlns="http://www.w3.org/2000/svg">
<g clip-path="url(#clip0_1310:389)">
<path d="M30.4453 6.74194V38.8683C30.448 39.0191 30.4204 39.169 30.3639 39.3089C30.3075 39.4488 30.2235 39.576 30.117 39.6827C30.0104 39.7893 29.8835 39.8735 29.7437 39.9299C29.604 39.9864 29.4543 40.0142 29.3037 40.0114H22.2824C22.13 40.0182 21.9778 39.9923 21.8361 39.9357C21.6944 39.879 21.5663 39.7928 21.4604 39.6828C21.2599 39.4653 21.1515 39.1784 21.1579 38.8825V28.8197C21.1598 28.671 21.1318 28.5235 21.0754 28.386C21.019 28.2485 20.9354 28.1238 20.8297 28.0194C20.7266 27.9136 20.6031 27.8299 20.4667 27.7734C20.3303 27.7169 20.1838 27.6888 20.0362 27.6908H10.4091C10.2575 27.6838 10.1061 27.7095 9.96525 27.7662C9.82441 27.8229 9.69739 27.9093 9.59281 28.0194C9.39127 28.2365 9.28177 28.5234 9.28741 28.8197V38.8683C9.29052 39.0173 9.2627 39.1654 9.20571 39.3032C9.14872 39.4409 9.0638 39.5653 8.95633 39.6685C8.85231 39.7746 8.72782 39.8585 8.59044 39.915C8.45306 39.9715 8.30565 39.9995 8.15715 39.9972H1.1302C0.977318 40.0039 0.824747 39.9781 0.682558 39.9215C0.540369 39.8648 0.411802 39.7786 0.305353 39.6685C0.103818 39.4515 -0.00567905 39.1646 -4.46221e-05 38.8683V6.74194C-0.00493658 6.44663 0.104509 6.16087 0.305353 5.94456C0.411468 5.83403 0.539973 5.74752 0.682244 5.69083C0.824516 5.63414 0.977255 5.6086 1.1302 5.61591H8.15715C8.30547 5.61308 8.45281 5.6405 8.5902 5.69651C8.72759 5.75253 8.85216 5.83594 8.95633 5.9417C9.06345 6.04456 9.14815 6.16851 9.20513 6.30573C9.26211 6.44296 9.29012 6.5905 9.28741 6.73908V17.8308C9.28252 18.1261 9.39196 18.4119 9.59281 18.6282C9.69765 18.7378 9.82478 18.8237 9.9656 18.8799C10.1064 18.9361 10.2577 18.9614 10.4091 18.954H20.0419C20.1894 18.9548 20.3356 18.9262 20.472 18.87C20.6085 18.8139 20.7324 18.7312 20.8367 18.6267C20.941 18.5223 21.0236 18.3982 21.0797 18.2615C21.1358 18.1249 21.1643 17.9785 21.1636 17.8308V6.73908C21.1579 6.44416 21.2663 6.15845 21.4661 5.9417C21.5723 5.8322 21.7005 5.74654 21.8422 5.69037C21.9839 5.63421 22.1359 5.60883 22.2881 5.61591H29.3179C29.4671 5.61325 29.6154 5.64042 29.754 5.69585C29.8926 5.75128 30.0187 5.83385 30.1251 5.93872C30.2314 6.04359 30.3157 6.16865 30.3732 6.30657C30.4306 6.44449 30.46 6.59251 30.4596 6.74194H30.4453Z" fill="url(#paint0_linear_1310:389)"></path>
<path d="M36.3107 24.4984C36.2946 22.5467 36.6833 20.613 37.4524 18.8196C38.1981 17.0843 39.2631 15.505 40.592 14.164C41.9189 12.8277 43.4907 11.7603 45.2214 11.0203C47.0149 10.2547 48.9444 9.86001 50.8941 9.86001C52.8437 9.86001 54.7733 10.2547 56.5667 11.0203C60.071 12.521 62.8628 15.3164 64.3615 18.8254C65.1242 20.6212 65.5174 22.5526 65.5174 24.5041C65.5174 26.4556 65.1242 28.3871 64.3615 30.1829C62.8636 33.6881 60.0753 36.4811 56.5753 37.9823C54.7818 38.7479 52.8523 39.1425 50.9027 39.1425C48.953 39.1425 47.0235 38.7479 45.23 37.9823C43.4993 37.2422 41.9274 36.1748 40.6006 34.8385C39.2717 33.4975 38.2067 31.9182 37.461 30.1829C36.6885 28.3883 36.2968 26.4525 36.3107 24.4984ZM43.9513 24.4984C43.9462 25.4519 44.1295 26.397 44.4908 27.2792C44.8399 28.1368 45.344 28.9225 45.9778 29.597C46.6081 30.2682 47.3609 30.8125 48.1955 31.2003C49.0414 31.5956 49.9635 31.8005 50.8969 31.8005C51.8304 31.8005 52.7525 31.5956 53.5984 31.2003C54.4376 30.8102 55.1965 30.2664 55.8361 29.597C56.4799 28.927 56.9904 28.1404 57.3402 27.2792C57.7024 26.3972 57.8867 25.4521 57.8825 24.4984C57.8825 23.5507 57.6983 22.612 57.3402 21.7348C56.9959 20.8707 56.4847 20.083 55.8361 19.417C55.191 18.7592 54.433 18.2229 53.5984 17.8337C52.7525 17.4383 51.8304 17.2335 50.8969 17.2335C49.9635 17.2335 49.0414 17.4383 48.1955 17.8337C47.3653 18.2203 46.6134 18.7571 45.9778 19.417C44.6799 20.7901 43.955 22.6078 43.9513 24.4984Z" fill="url(#paint1_radial_1310:389)"></path>
<path d="M65.7086 0.723112V5.29585C65.7102 5.40107 65.6848 5.50495 65.6348 5.59753C65.5849 5.69011 65.512 5.76828 65.4232 5.82456C65.2224 5.95839 64.985 6.02631 64.7439 6.0189H37.421C37.1799 6.02631 36.9425 5.95839 36.7417 5.82456C36.6529 5.76828 36.58 5.69011 36.53 5.59753C36.48 5.50495 36.4546 5.40107 36.4563 5.29585V0.723112C36.4583 0.620942 36.4854 0.520825 36.5352 0.431612C36.5849 0.3424 36.6559 0.26682 36.7417 0.211526C36.9376 0.0659539 37.1771 -0.00861711 37.421 4.00455e-05H64.7524C64.9963 -0.00861711 65.2358 0.0659539 65.4317 0.211526C65.516 0.267801 65.5852 0.343822 65.6335 0.432973C65.6817 0.522123 65.7075 0.621719 65.7086 0.723112Z" fill="url(#paint2_linear_1310:389)"></path>
</g>
<defs>
<linearGradient id="paint0_linear_1310:389" x1="15.2212" y1="5.61591" x2="15.2212" y2="40" gradientUnits="userSpaceOnUse">
<stop stop-color="#E6E6E6"></stop>
<stop offset="0.55" stop-color="white"></stop>
<stop offset="1" stop-color="#999999"></stop>
</linearGradient>
<radialGradient id="paint1_radial_1310:389" cx="0" cy="0" r="1" gradientUnits="userSpaceOnUse" gradientTransform="translate(50.9098 24.4984) scale(17.1307 17.1535)">
<stop offset="0.3" stop-color="#E4750F"></stop>
<stop offset="0.37" stop-color="#EC9C37"></stop>
<stop offset="0.45" stop-color="#F4C25F"></stop>
<stop offset="0.52" stop-color="#FADE7C"></stop>
<stop offset="0.58" stop-color="#FEEF8E"></stop>
<stop offset="0.62" stop-color="#FFF594"></stop>
<stop offset="0.67" stop-color="#FFF18C"></stop>
<stop offset="0.74" stop-color="#FFE675"></stop>
<stop offset="0.83" stop-color="#FFD350"></stop>
<stop offset="0.92" stop-color="#FFBE24"></stop>
</radialGradient>
<linearGradient id="paint2_linear_1310:389" x1="51.0867" y1="-2.12628" x2="51.0867" y2="9.37129" gradientUnits="userSpaceOnUse">
<stop stop-color="#E4750F"></stop>
<stop offset="0.06" stop-color="#E98B26"></stop>
<stop offset="0.2" stop-color="#F2B855"></stop>
<stop offset="0.33" stop-color="#F9D977"></stop>
<stop offset="0.43" stop-color="#FDEE8C"></stop>
<stop offset="0.5" stop-color="#FFF594"></stop>
<stop offset="0.58" stop-color="#FFF18C"></stop>
<stop offset="0.7" stop-color="#FFE675"></stop>
<stop offset="0.85" stop-color="#FFD350"></stop>
<stop offset="1" stop-color="#FFBE24"></stop>
</linearGradient>
<clipPath id="clip0_1310:389">
<rect width="65.7143" height="40" fill="white"></rect>
</clipPath>
</defs>
</svg>